<svg viewBox="0 0 20 20" fill="none" xmlns="http://www.w3.org/2000/svg">
<path d="M10 0.124023C4.5 0.124023 0 4.59682 0 10.1056C0 15.0865 3.66 19.2206 8.44 19.9677V12.9945H5.9V10.1056H8.44V7.9041C8.44 5.40372 9.93 4.029 12.22 4.029C13.31 4.029 14.45 4.21828 14.45 4.21828V6.67881H13.19C11.95 6.67881 11.56 7.44586 11.56 8.23284V10.1056H14.34L13.89 12.9945H11.56V19.9677C13.9164 19.597 16.0622 18.3993 17.6099 16.5907C19.1576 14.7823 20.0054 12.4821 20 10.1056C20 4.59682 15.5 0.124023 10 0.124023Z" fill="white"/>
</svg>
