<svg viewBox="0 0 20 20" fill="none" xmlns="http://www.w3.org/2000/svg">
<path d="M5.8 0.0841064H14.2C17.4 0.0841064 20 2.67414 20 5.86188V14.2297C20 15.7621 19.3889 17.2317 18.3012 18.3152C17.2135 19.3988 15.7383 20.0075 14.2 20.0075H5.8C2.6 20.0075 0 17.4174 0 14.2297V5.86188C0 4.32952 0.61107 2.85992 1.69878 1.77638C2.78649 0.692835 4.26174 0.0841064 5.8 0.0841064ZM5.6 2.07644C4.64522 2.07644 3.72955 2.45428 3.05442 3.12682C2.37928 3.79936 2 4.71153 2 5.66265V14.4289C2 16.4113 3.61 18.0151 5.6 18.0151H14.4C15.3548 18.0151 16.2705 17.6373 16.9456 16.9648C17.6207 16.2922 18 15.3801 18 14.4289V5.66265C18 3.68027 16.39 2.07644 14.4 2.07644H5.6ZM15.25 3.5707C15.5815 3.5707 15.8995 3.70189 16.1339 3.93541C16.3683 4.16893 16.5 4.48566 16.5 4.81591C16.5 5.14616 16.3683 5.46288 16.1339 5.6964C15.8995 5.92993 15.5815 6.06112 15.25 6.06112C14.9185 6.06112 14.6005 5.92993 14.3661 5.6964C14.1317 5.46288 14 5.14616 14 4.81591C14 4.48566 14.1317 4.16893 14.3661 3.93541C14.6005 3.70189 14.9185 3.5707 15.25 3.5707ZM10 5.06495C11.3261 5.06495 12.5979 5.58972 13.5355 6.5238C14.4732 7.45789 15 8.72479 15 10.0458C15 11.3668 14.4732 12.6337 13.5355 13.5678C12.5979 14.5019 11.3261 15.0266 10 15.0266C8.67392 15.0266 7.40215 14.5019 6.46447 13.5678C5.52678 12.6337 5 11.3668 5 10.0458C5 8.72479 5.52678 7.45789 6.46447 6.5238C7.40215 5.58972 8.67392 5.06495 10 5.06495ZM10 7.05729C9.20435 7.05729 8.44129 7.37215 7.87868 7.9326C7.31607 8.49305 7 9.25319 7 10.0458C7 10.8384 7.31607 11.5985 7.87868 12.159C8.44129 12.7194 9.20435 13.0343 10 13.0343C10.7956 13.0343 11.5587 12.7194 12.1213 12.159C12.6839 11.5985 13 10.8384 13 10.0458C13 9.25319 12.6839 8.49305 12.1213 7.9326C11.5587 7.37215 10.7956 7.05729 10 7.05729Z" fill="white"/>
</svg>
