<svg viewBox="0 0 20 15" fill="none" xmlns="http://www.w3.org/2000/svg">
<path d="M8 10.0343L13.19 7.04581L8 4.05731V10.0343ZM19.56 2.23432C19.69 2.70252 19.78 3.3301 19.84 4.12704C19.91 4.92397 19.94 5.61133 19.94 6.20903L20 7.04581C20 9.22742 19.84 10.8313 19.56 11.8573C19.31 12.7539 18.73 13.3316 17.83 13.5807C17.36 13.7102 16.5 13.7998 15.18 13.8596C13.88 13.9293 12.69 13.9592 11.59 13.9592L10 14.019C5.81 14.019 3.2 13.8596 2.17 13.5807C1.27 13.3316 0.69 12.7539 0.44 11.8573C0.31 11.3891 0.22 10.7615 0.16 9.96459C0.0900001 9.16765 0.0599999 8.4803 0.0599999 7.88259L0 7.04581C0 4.8642 0.16 3.26037 0.44 2.23432C0.69 1.33777 1.27 0.759988 2.17 0.510946C2.64 0.381444 3.5 0.291789 4.82 0.232019C6.12 0.162287 7.31 0.132402 8.41 0.132402L10 0.0726318C14.19 0.0726318 16.8 0.232019 17.83 0.510946C18.73 0.759988 19.31 1.33777 19.56 2.23432Z" fill="white"/>
</svg>
