<svg viewBox="0 0 64 64" fill="none" xmlns="http://www.w3.org/2000/svg">
<path d="M19.2422 41.4884L47.1286 27.288L43.2254 20.0439L5.69253 39.1033C9.86204 54.5893 27.3173 63.2987 43.1285 58.0437C60.1964 52.3709 68.7073 33.911 61.332 18.0613C57.8041 10.4774 52.085 4.72237 43.7726 2.25716C27.1212 -2.68192 14.8645 3.48652 6.15498 17.3406C4.28088 17.0268 2.6804 16.7584 0 16.3104C2.39953 22.5308 4.47213 27.9049 6.55205 33.3006C12.092 30.0519 17.0872 27.1235 22.6151 23.8813C20.4601 22.468 19.1139 21.5871 17.7604 20.6997C24.85 10.9384 36.683 8.91907 45.5184 15.7195C54.3151 22.4918 55.1214 35.0408 47.2787 43.1095C39.9566 50.6437 26.2786 50.9445 19.8306 42.2503C19.632 41.9819 19.4335 41.7287 19.235 41.4884" fill="#E1B93A"/>
</svg>
