<svg viewBox="0 0 36 36" fill="none" xmlns="http://www.w3.org/2000/svg">
<path d="M12.7706 34.5638C12.7706 34.3225 12.8442 34.0472 12.7556 33.8485C12.5619 33.4156 12.3682 32.8267 12.0184 32.6692C11.6835 32.5173 11.0965 32.7316 10.7196 32.9601C9.77815 33.5306 9.23912 35.0732 7.68358 33.8939C6.62203 33.0878 6.34124 32.3825 6.95685 31.1393C7.24664 30.5546 7.3833 29.6236 7.12954 29.0758C6.67159 28.088 5.73164 28.5635 5.03945 28.9026C3.75418 29.5313 2.9809 29.1553 2.36529 27.8752C1.93887 26.9882 1.92838 26.3552 2.7602 25.7776C3.10555 25.5378 3.42537 25.2412 3.70615 24.9218C4.41935 24.1101 4.10552 22.979 3.08301 22.6668C2.7752 22.5731 2.43888 22.5646 2.11456 22.5405C0.405865 22.4142 -0.383899 21.3569 0.18066 19.6993C0.327806 19.2678 1.06354 19.0067 1.57254 18.764C2.25872 18.4376 3.13259 18.4873 3.26322 17.3548C3.39835 16.1683 2.57101 15.9129 1.85631 15.4928C1.77523 15.4446 1.70164 15.375 1.61605 15.3466C0.504953 14.9748 0.497472 14.2141 0.742215 13.1866C1.03951 11.9378 1.66864 11.5432 2.8488 11.8143C3.64009 11.9959 4.41184 12.2869 5.04696 11.2452C5.73915 10.1113 4.9614 9.55779 4.46441 8.87233C3.89534 8.08752 3.51545 7.41767 4.29923 6.46398C5.09652 5.49468 5.79772 5.1782 6.86077 6.01694C7.63103 6.62577 8.60547 7.33677 9.34871 6.11628C9.69705 5.54577 9.74663 4.58782 9.56495 3.90945C9.26015 2.77127 9.4238 2.14967 10.5304 1.65579C11.5889 1.18321 12.2436 1.31519 12.8397 2.35261C13.1535 2.899 13.652 3.61142 14.1595 3.70367C15.209 3.89384 16.0153 3.43403 16.161 2.09148C16.2601 1.17327 16.1835 0.0279921 17.6985 0.00102764C18.9988 -0.0216793 19.745 0.324601 19.7991 1.77075C19.8411 2.89048 20.2465 3.89526 21.5063 3.68664C22.1024 3.5873 22.7345 2.93022 23.1038 2.35687C23.7375 1.3748 24.3516 1.16759 25.4281 1.64444C26.4702 2.10567 26.757 2.72727 26.4416 3.77605C26.3455 4.09537 26.1729 4.46577 26.2494 4.75103C26.4056 5.33289 26.5783 6.05242 26.9912 6.37173C27.3275 6.63144 28.0633 6.50513 28.5557 6.34193C29.5077 6.02545 30.2434 4.75812 31.4311 6.18156C32.3019 7.2275 32.2824 7.9456 31.4882 8.9149C31.1143 9.37046 30.6293 10.019 30.6969 10.5086C30.835 11.5262 31.4161 12.179 32.6653 11.9392C34.7869 11.5305 34.9326 11.6482 35.3064 13.7018C35.3815 14.1176 35.0842 14.7378 34.7659 15.0642C34.3515 15.4914 33.7118 15.673 33.2299 16.0449C32.335 16.736 32.5092 17.9707 33.5377 18.4475C33.7494 18.5455 33.9746 18.6136 34.1968 18.6874C36.0091 19.2877 36.3409 19.8866 35.6983 21.7046C35.5767 22.0494 35.0722 22.3545 34.6848 22.4709C34.1593 22.6299 33.5241 22.461 33.0362 22.6753C32.5902 22.8711 32.1278 23.3295 31.9551 23.7851C31.838 24.0945 32.1668 24.6267 32.3785 25.0098C32.5077 25.244 32.7884 25.3959 33.0121 25.569C33.844 26.2076 34.2704 26.8278 33.5782 27.9688C32.9341 29.0304 32.335 29.5938 31.1353 28.941C30.811 28.765 30.4371 28.6642 30.0737 28.5933C28.9882 28.3818 28.266 29.2475 28.6248 30.3162C28.7314 30.6326 28.868 30.9434 29.0242 31.2372C29.5197 32.1696 29.6924 32.9104 28.5948 33.6626C27.5918 34.3509 26.826 34.6631 25.9627 33.5718C25.6999 33.2411 25.3666 32.953 25.0242 32.7089C24.3276 32.215 23.3576 32.6181 23.2014 33.471C23.1324 33.8442 23.1789 34.2388 23.1774 34.6248C23.1729 36.3874 22.3051 37.1992 20.6009 36.9224C20.2826 36.8699 19.9492 36.4711 19.757 36.1461C19.4432 35.6196 19.2886 34.9895 18.9763 34.4616C18.4477 33.5689 17.5213 33.6001 16.9898 34.4956C16.8201 34.7809 16.7045 35.1002 16.5694 35.4068C15.8547 37.0289 14.73 37.4702 13.3337 36.4626C12.8877 36.1405 12.8142 35.2663 12.5694 34.6461C12.637 34.6191 12.7045 34.5921 12.7721 34.5638H12.7706ZM25.5903 18.5866C25.5483 14.2638 22.0062 10.6662 17.8742 10.7542C13.7421 10.8407 10.3818 14.4185 10.4238 18.6902C10.4643 22.9407 13.9973 26.5425 18.0408 26.4588C22.1684 26.3722 25.6309 22.7633 25.5903 18.588V18.5866Z" fill="#1BB7CC"/>
</svg>
