<svg width="36" height="36" viewBox="0 0 36 36" fill="none" xmlns="http://www.w3.org/2000/svg">
<path d="M28.8549 4.12468C27.2153 7.47137 29.5986 9.96646 30.7683 12.7835C30.9129 13.1288 31.326 13.3859 31.6617 13.5806C32.3253 13.9596 32.9992 14.3595 33.7119 14.5854C35.54 15.1618 36.1313 16.4002 35.9764 18.4669C35.8705 19.8871 35.6666 20.9023 34.2748 21.2554C33.8513 21.3618 33.4769 21.676 33.0586 21.8188C31.5481 22.3303 30.35 23.1897 29.9472 24.9993C29.9162 25.1343 29.8387 25.2771 29.7483 25.3732C27.8556 27.3594 28.1345 29.8311 28.5812 32.2561C28.8549 33.7386 28.2094 34.4111 27.1998 35.0005C26.1385 35.621 25.1315 36.6699 23.8818 35.4029C23.7836 35.3042 23.6571 35.2393 23.5719 35.1329C21.4649 32.521 18.6943 32.36 15.823 32.6352C15.4124 32.6741 14.9786 32.8766 14.6274 33.1285C13.8528 33.6815 13.0679 34.2475 12.3888 34.9304C11.25 36.0728 10.1862 36.0001 8.93129 35.1251C7.03602 33.8061 6.97662 33.7984 7.33812 31.2669C7.61698 29.3093 7.50079 27.6165 6.56089 25.6562C5.35505 23.1403 3.74897 21.7201 1.46638 20.8919C0.407712 20.5076 -0.126775 19.7988 0.0255699 18.5084C0.105616 17.8412 -0.0699736 17.1194 0.0849536 16.4833C0.211477 15.9562 0.64011 15.5097 0.957711 15.0449C1.02743 14.9411 1.18752 14.9099 1.30888 14.8528C4.06486 13.5096 6.1426 11.3607 7.54211 8.40606C7.69446 8.08411 7.73835 7.66609 7.72802 7.29741C7.7022 6.5237 7.63248 5.74999 7.53436 4.98407C7.16512 2.03721 7.76159 0.925977 10.3127 0.0510069C10.6871 -0.0762142 11.1545 0.0639766 11.565 0.152252C11.7664 0.19639 11.9756 0.365151 12.1176 0.539106C14.2737 3.20036 17.1244 3.44443 20.0731 3.27567C20.525 3.24971 21.0105 3.02382 21.3978 2.7512C22.2163 2.18 22.9754 1.51014 23.7707 0.897404C25.1676 -0.182678 27.7833 0.411888 28.6148 2.08394C28.8627 2.58244 28.7697 3.28606 28.8575 4.12208L28.8549 4.12468ZM18.1494 8.08152C13.1866 7.98026 9.09138 12.3214 8.98809 17.7997C8.88481 23.1819 12.9542 27.806 17.8551 27.8761C22.7559 27.9488 26.9467 23.496 27.0423 18.1164C27.1378 12.7238 23.1149 8.18537 18.1494 8.08152Z" fill="#E11714"/>
</svg>
