<?xml version="1.0" encoding="UTF-8"?>
<svg id="b" data-name="圖層_2" xmlns="http://www.w3.org/2000/svg" viewBox="0 0 330.1 103.5">
  <defs>
    <style>
      .d {
        fill: #231f20;
      }
    </style>
  </defs>
  <g id="c" data-name="圖層_1">
    <g>
      <g>
        <path class="d" d="M134.4,39.8c-.4,1.9-1.1,3.6-2,4.9-.9,1.3-2.2,2.5-3.7,3.3-1.6.9-3.5,1.5-5.8,1.9-2.3.4-5,.6-8.1.6h-28.4c-5.8,0-9.8-.9-12.1-2.6-2.3-1.7-3-4.4-2.2-8.2l5.9-27.9c.4-2.2,1.1-4,2.1-5.5.9-1.5,2.1-2.7,3.7-3.7,1.5-.9,3.4-1.6,5.6-2.1,2.2-.4,4.8-.6,7.8-.6h28.4c3.2,0,5.9.2,8.1.6,2.2.4,3.8,1.1,4.8,2,2.2,1.8,2.8,4.9,1.8,9.3l-1.3,6.6h-27.7l.7-3.6c.3-1.3.2-2.2-.2-2.8-.4-.6-1.3-.8-2.5-.8s-2.2.3-2.8.9c-.7.6-1.1,1.5-1.4,2.8l-4.4,20.7c-.2,1.3-.2,2.2.2,2.8.4.6,1.2.9,2.5.9,2.3,0,3.7-1.2,4.2-3.6l1.2-5.8h27.7l-2.1,9.9Z"/>
        <path class="d" d="M148.8.3h54l-2.5,11.4h-26.8l-1.2,5.5h24.2l-2.4,11.4h-24.2l-2.2,10.3h26.8l-2.4,11.4h-54L148.8.3Z"/>
        <path class="d" d="M210.3.3h26.7l-4.3,20.1L245.8.3h23.9l-15.5,23.1,5.5,26.7h-23.6l-4.8-22.8-4.8,22.8h-26.7L210.3.3Z"/>
        <path class="d" d="M67.2,50.1l-1.4-40.6c-.2-6-4.8-9.2-11.8-9.2h-31.2L0,50.1h28.1l3.8-10.8h11.3l-.7,10.8h24.7ZM35.3,28.3l4.2-10.9c.7-1.8,1.4-2.9,3.1-2.9s2.3,1.5,2.2,3.4l-.5,10.5h-9Z"/>
        <path class="d" d="M330.1,50.1l-1.4-40.6c-.2-6-4.8-9.2-11.8-9.2h-31.2l-22.9,49.8h28.1l3.8-10.8h11.3l-.7,10.8h24.7ZM298.2,28.3l4.2-10.9c.7-1.8,1.4-2.9,3.1-2.9s2.3,1.5,2.2,3.4l-.5,10.5h-9Z"/>
      </g>
      <g>
        <path class="d" d="M82.3,103.5h-16.6c-1.3,0-2.5,0-3.6-.2-1.2-.1-2.3-.3-3.3-.6-1.7-.5-3.1-1.3-4.1-2.4-.4.6-.7,1.1-1.2,1.7-.4.6-.8,1.1-1.3,1.6h-6.4c1.6-1.9,3-4,4.2-6,1.2-2.1,2.3-4.2,3.1-6.3,0-.2,0-.4,0-.5-.1-.2-.3-.2-.5-.2h-1.6c-.3,0-.6-.1-.8-.3s-.4-.5-.5-.8c-.1-.3-.2-.6-.1-.9,0-.3.1-.7.3-1,.7-1.1,1.4-2.3,2-3.4.6-1.1,1.2-2.3,1.7-3.4,0-.1,0-.3,0-.4,0,0-.2-.1-.3-.1h-2.9l.7-3.8h7.2c1,0,1.7.4,2.1,1.1.3.7.3,1.5-.1,2.4-.3.5-.5,1.1-.8,1.7-.3.6-.6,1.2-.9,1.8-.3.6-.6,1.2-1,1.8-.3.6-.6,1.1-.9,1.6h1.1c.4,0,.7,0,1,.2.3.2.6.4.8.6.2.3.3.5.4.9,0,.3,0,.7,0,1.1-.4,1.3-.8,2.5-1.4,3.9-.6,1.3-1.1,2.6-1.7,3.8.5.5,1,.9,1.6,1.3.6.3,1.3.6,2,.9.8.3,1.6.4,2.5.5.9.1,1.8.2,2.7.2h1.9l.5-2.7h-9.6l.6-3.2h9.6l.3-1.7h-5.1c-.4,0-.9,0-1.3-.2-.4-.1-.7-.4-1-.7-.5-.6-.6-1.4-.4-2.4l1.4-7.5c.2-.8.6-1.5,1.3-2.1.7-.6,1.5-.8,2.3-.8h5.3l.3-1.4h-6.9l.5-2.8h-2.9l.8-4.5c.1-.7.5-1.4,1.2-2,.6-.5,1.3-.7,2.1-.7h19.6c.6,0,1,.1,1.4.3.4.2.6.5.9.8.3.6.4,1.2.3,1.9l-.8,4.2h-2.8l-.5,2.8h-7.1l-.3,1.4h5.3c.5,0,.9,0,1.3.2.4.2.7.4.9.6.5.5.7,1.2.5,2l-1.5,8c-.2.9-.6,1.6-1.3,2.1-.3.3-.7.4-1.1.6-.4.1-.9.2-1.3.2h-5.3l-.3,1.7h10.1l-.6,3.2h-10.1l-.5,2.7h10.7l-1.5,3.7ZM54.9,74.3c-.5-1.3-.8-2.5-1.1-3.8-.3-1.3-.5-2.6-.6-3.8h6.6c.2,1.3.4,2.5.7,3.8.3,1.3.7,2.5,1.1,3.9h-6.7ZM69.7,86.7h-2.8l-.3,1.4c0,.3,0,.5.2.6.2.2.3.2.5.2h2l.4-2.3ZM70.6,81.7h-2c-.2,0-.4,0-.6.2-.2.1-.3.3-.3.4l-.2,1.3h2.8l.4-2ZM82.4,71.1c0-.1,0-.2-.1-.4-.1-.1-.2-.2-.3-.2h-12.6c-.1,0-.3,0-.4.2-.1.1-.2.2-.2.4l-.5,2.7h4l.4-2.1h5.8l-.4,2.1h4l.5-2.7ZM78.4,86.7h-2.9l-.4,2.3h2.2c.2,0,.4,0,.6-.2.2-.1.3-.3.3-.6l.3-1.5ZM79.2,82.5c0-.2,0-.4-.1-.5-.1-.1-.3-.2-.5-.2h-2.2l-.4,2h2.9l.2-1.2Z"/>
        <path class="d" d="M128.7,76.3l-.4,2.1h3.6c1,0,1.7.3,2.3.9.5.6.7,1.3.5,2.3l-1.3,7c-.2,1-.6,1.8-1.1,2.4-.7.7-1.6,1.1-2.7,1.1h-3.8l-.4,2h6.6l-.6,3.1h-6.6l-.4,2.1c1.1,0,2.2-.1,3.4-.2,1.2,0,2.4-.2,3.6-.3l-.6,3.1c-3.3.4-6.7.6-10.1.8-3.4.2-6.8.2-10.2.2l.6-3.3c1.3,0,2.6,0,3.9,0,1.3,0,2.6,0,3.9,0l.4-2.3h-7l.6-3.1h7l.4-2h-3.6c-.9,0-1.7-.3-2.3-.8-.3-.3-.5-.6-.6-.9-.1-.4-.1-.8,0-1.3l1.4-7.6c.2-.8.6-1.5,1.3-2.1.7-.6,1.5-.9,2.4-.9h4l.4-2.1h-7.8l.6-3.2h7.8l.4-2.2c-1.1,0-2.2,0-3.4,0-1.2,0-2.4,0-3.4,0l.6-3.1c3.2-.1,6.4-.3,9.6-.5,3.2-.2,6.4-.5,9.6-.9l-.6,3.4c-1.1.1-2.3.3-3.4.4-1.1.1-2.3.2-3.4.3l-.5,2.5h7.5l-.6,3.2h-7.5ZM121.3,86.8h-2.3l-.3,1.4c0,.2,0,.3.1.4.1.1.2.2.4.2h1.8l.4-2ZM122.3,81.8h-1.7c-.2,0-.4,0-.5.2-.1.2-.2.3-.3.5l-.2,1.2h2.3l.4-2ZM129,86.8h-2.3l-.4,2h1.5c.2,0,.4,0,.5-.2.2-.1.3-.3.3-.5l.2-1.3ZM129.8,82.3c0-.2,0-.3-.2-.4-.2,0-.3-.1-.4-.1h-1.5l-.4,2h2.3l.3-1.4ZM146.8,101.1c-.3.5-.8.9-1.2,1.3-.5.4-.9.6-1.5.8-.5.2-1.1.3-1.6.3h-3.2v-3.8c-.1,0,1.7,0,1.7,0,.2,0,.4,0,.6-.3.2-.2.3-.4.3-.6l3.8-20.6c0-.1,0-.3-.1-.4-.1-.2-.3-.2-.4-.2h-1.1l-1.5,8.5c-.2,1.2-.5,2.5-.9,4.1-.4,1.6-.9,3.2-1.4,4.8-.5,1.6-1.1,3.2-1.6,4.7-.6,1.5-1.2,2.8-1.7,3.9h-6.1c.7-1.2,1.4-2.5,2.1-4,.7-1.5,1.3-3,1.8-4.5.5-1.5,1-3.1,1.5-4.6.4-1.5.8-2.9,1-4.3l1.6-8.7h-1.6l.7-3.8h1.6l1.3-6.9h5.4l-1.3,6.9h3.4c1.2,0,2.1.4,2.8,1.1.6.7.8,1.6.6,2.7l-4,22.1c-.1.6-.3,1.1-.7,1.6Z"/>
        <path class="d" d="M186.1,100.2c-.7.6-1.5.9-2.4.9h-7.3c-.9,0-1.6-.3-2.1-.8-.5-.6-.7-1.3-.5-2.3l4.9-27.1c0-.4.2-.8.4-1.1.2-.3.5-.6.8-.9.7-.6,1.6-.9,2.5-.9h7c1,0,1.8.3,2.3,1,.5.6.6,1.3.4,2.2l-4.9,27.1c-.1.7-.5,1.3-1.1,1.9ZM183.4,90.7h-3.2l-1.2,6.3c0,.1,0,.2.1.3.1.1.2.2.3.2h2.2c.1,0,.3,0,.4-.2.1-.1.2-.2.2-.3l1.2-6.3ZM185.1,81.2h-3.2l-1.1,6h3.2l1.1-6ZM186.7,72.4c0-.1,0-.3,0-.4,0-.1-.2-.2-.3-.2h-2.2c-.1,0-.2,0-.3.1-.1,0-.2.2-.2.3l-1,5.4h3.2l1-5.3ZM210.1,84.8c-.9.8-1.9,1.2-3.2,1.2h-9.4l-2.4,13.1c0,.1,0,.2.1.4.1.1.2.2.3.2h3.7l-1.9,3.7h-4.8c-1.3,0-2.2-.4-2.8-1.2-.6-.7-.8-1.7-.6-2.9l5.2-28.7c.2-1,.6-1.8,1.4-2.5.8-.8,1.7-1.1,2.8-1.1h12.2c.4,0,.8,0,1.2.3.4.2.7.4.9.8.5.7.7,1.4.6,2.2l-2.2,12.1c-.2,1-.6,1.9-1.3,2.5ZM202.5,103.5c-1.1-2.4-2-4.9-2.8-7.5-.7-2.5-1.3-5.2-1.8-8.1h6.1c.1.6.2,1.2.4,1.7.1.6.3,1.1.4,1.7.4-.6.8-1.2,1.1-1.9.4-.7.7-1.3,1-1.9h5.1c-.6,1.1-1.2,2.1-1.7,3.3-.6,1.1-1.2,2.2-1.9,3.3h-3c.5,1.6,1.1,3.2,1.8,4.8.7,1.6,1.4,3.1,2.2,4.6h-6.9ZM206.5,78.2h-7.5l-.7,4h6.8c.2,0,.3,0,.5-.2.2-.1.3-.3.3-.4l.6-3.4ZM207.7,71.3c0-.1,0-.3-.1-.4-.1-.1-.3-.2-.4-.2h-6c-.2,0-.4,0-.6.2-.2.1-.3.2-.3.4l-.6,3.3h7.5l.6-3.3Z"/>
        <path class="d" d="M254.6,79.8l.3-1.6h-1l-.4,2.2h-3.1l-.7,3.9h4.5l-.7,3.6h-4.5l-1.9,10.3c.7-.1,1.5-.2,2.3-.4.8-.1,1.6-.3,2.3-.4l-.7,3.6c-1.3.3-2.5.5-3.7.7-1.2.2-2.4.4-3.6.6-1.2.2-2.5.4-3.8.6-1.3.2-2.8.4-4.3.6l.7-3.7c.8,0,1.6-.1,2.4-.3.8-.1,1.6-.2,2.4-.3l2-11.2h-4.6l.7-3.6h4.6l.7-3.9h-3l.4-2.2h-2.3c1.7-3,3.2-6.1,4.6-9.3.3-.6.7-1,1.2-1.3.3-.2.6-.3.9-.4.3,0,.7-.1,1-.1h5.2c.4,0,.7,0,1,.2.3.1.5.3.7.5.4.4.6,1,.6,1.7,0,1.2.1,2.4.2,3.5.1,1.1.3,2.3.5,3.4h3.4c0-.5-.2-1-.3-1.6s-.2-1.2-.2-1.6h-1.9l.6-3.4h7.3c0-.3,0-.7-.1-1.3,0-.5-.1-1.1-.1-1.6h6.3c0,.2,0,.4,0,.7,0,.3,0,.5.1.8,0,.3,0,.5.1.8,0,.2,0,.4,0,.6h7l-.6,3.4h-1.8c-.3.6-.6,1.1-.8,1.7-.3.5-.5,1.1-.8,1.6h3.7l-.6,3.5h-22.6ZM237.8,97.5c0-1.3.1-2.6.2-3.9.1-1.4.2-2.7.3-4h3.1c-.2,1.3-.3,2.7-.4,4,0,1.3-.1,2.6-.1,3.9h-3.1ZM250.1,73.8c0-1-.1-1.9-.2-2.9,0-.2-.2-.3-.5-.3s-.3,0-.4,0c-.1,0-.2.1-.2.2-.5,1.1-1,2-1.4,2.9-.4.9-.9,1.8-1.3,2.8h4.3c0-.9-.2-1.9-.2-2.8ZM252.2,93.1c-.3,1.2-.7,2.3-1.1,3.4h-3c.5-1.1.9-2.3,1.2-3.5.4-1.2.7-2.3,1-3.5h2.8c-.3,1.2-.6,2.3-.9,3.5ZM272,103.5h-5.8c-.6,0-1.2-.1-1.6-.4-.4-.2-.7-.5-1-.9-.4-.7-.5-1.7-.3-2.8l.8-4.3h-2.3c-.4,1.6-1,3.1-1.8,4.6-.8,1.4-2,2.7-3.4,3.8h-7.5c1.7-.9,3.1-2.1,4.3-3.6,1.2-1.5,2-3,2.5-4.7-.9,0-1.7-.3-2.2-.8-.2-.2-.3-.5-.4-.8,0-.3-.1-.7,0-1.1l1.5-8.3c.2-.8.5-1.5,1.1-1.9.6-.5,1.5-.8,2.5-.8h13.8c1.1,0,1.9.3,2.4,1,.4.6.5,1.3.3,2.3l-1.3,7.3c-.2,1-.6,1.8-1.2,2.3-.7.6-1.5.8-2.5.7l-.7,4c0,.2,0,.4.1.5.1.1.3.2.5.2h3.8l-1.6,3.7ZM268.3,89.9h-8.7l-.2,1.2c0,.4,0,.6.4.6h7.7c.2,0,.3,0,.4-.2.1-.1.2-.3.2-.4l.2-1.2ZM269.1,85.5c0-.1,0-.3-.1-.4-.1-.1-.2-.2-.4-.2h-7.6c-.1,0-.3,0-.4.2-.1.1-.2.2-.2.4l-.2,1.2h8.7l.2-1.2ZM264.7,73c0,.3,0,.5.1.8,0,.3,0,.6.1.9,0,.3.1.6.2.9,0,.3,0,.5.1.6h2.8c.2-.4.5-.8.8-1.5.3-.6.7-1.2,1-1.8h-5.1Z"/>
      </g>
    </g>
  </g>
</svg>