<?xml version="1.0" encoding="UTF-8"?>
<svg id="_圖層_2" data-name="圖層_2" xmlns="http://www.w3.org/2000/svg" viewBox="0 0 2771.9 1024">
  <defs>
    <style>
      .cls-1 {
        fill: #1bb7cc;
      }

      .cls-2 {
        fill: #1d2c6b;
      }

      .cls-2, .cls-3 {
        stroke: #1d2c6b;
      }

      .cls-2, .cls-3, .cls-4 {
        stroke-width: 11.3px;
      }

      .cls-2, .cls-3, .cls-4, .cls-5 {
        stroke-miterlimit: 10;
      }

      .cls-6 {
        fill: #fff;
      }

      .cls-7 {
        fill: #ea5514;
      }

      .cls-8 {
        fill: #3e8bcb;
      }

      .cls-9, .cls-3, .cls-4, .cls-5 {
        fill: none;
      }

      .cls-10 {
        fill: #f7f8f8;
      }

      .cls-11 {
        fill: #3c8ccc;
      }

      .cls-12 {
        fill: #f4c21d;
      }

      .cls-13 {
        fill: #e11714;
      }

      .cls-4 {
        stroke: #e11714;
      }

      .cls-5 {
        stroke: #1d2c6c;
        stroke-width: 28.3px;
      }
    </style>
  </defs>
  <g id="_圖層_1-2" data-name="圖層_1">
    <polygon class="cls-13" points="43.4 372.9 0 630.2 126 630.2 126 372.9 43.4 372.9"/>
    <polygon class="cls-13" points="266.3 372.9 309.7 630.2 183.7 630.2 183.7 372.9 266.3 372.9"/>
    <polyline class="cls-13" points="126 372.9 183.7 372.9 183.7 443.5 126 443.5 126 372.9"/>
    <polygon class="cls-8" points="374 630.2 509.3 630.2 480.1 484.2 374 630.2"/>
    <path class="cls-11" d="M794,0l1.4,407.9c0,118.5-96.1,214.6-214.6,214.6v-112.8c61.1,0,110.6-49.5,110.6-110.6l-1.4-399"/>
    <polygon class="cls-13" points="795.4 287.8 908.2 622.5 1093.5 622.5 882.7 287.8 795.4 287.8"/>
    <polygon class="cls-12" points="1530.3 598.3 1448.1 598.3 1350.2 756.3 1530.3 756.3 1530.3 598.3"/>
    <path class="cls-8" d="M1603,450.9c0,56.8,46.1,102.9,102.9,102.9,56.8,0,102.9-46.1,102.9-102.9,0-56.8-46.1-102.9-102.9-102.9-56.8,0-102.9,46.1-102.9,102.9ZM1665.7,450.9c0-22.2,18-40.3,40.3-40.3,22.2,0,40.3,18,40.3,40.3,0,22.2-18,40.3-40.3,40.3-22.2,0-40.3-18-40.3-40.3Z"/>
    <polygon class="cls-12" points="1628.8 598.3 1711 598.3 1808.9 756.3 1628.8 756.3 1628.8 598.3"/>
    <line class="cls-3" x1="2286.5" y1="388" x2="1865.9" y2="388"/>
    <line class="cls-3" x1="2286.5" y1="412.8" x2="1865.9" y2="412.8"/>
    <line class="cls-3" x1="2286.5" y1="437.7" x2="1865.9" y2="437.7"/>
    <path class="cls-4" d="M2561.2,1024l.2-422.8c0-54.6,44.3-98.9,98.9-98.9h84"/>
    <path class="cls-4" d="M2581.6,1024v-414.2c0-49.3,39.9-89.2,89.2-89.2h57.8"/>
    <path class="cls-4" d="M2600.9,1024v-414.2c0-39.1,31.7-70.8,70.8-70.8h41.2"/>
    <path class="cls-1" d="M1399.4,536.4c0-1.8.6-3.9-.1-5.4-1.5-3.3-3-7.8-5.8-9-2.6-1.1-7.2.5-10.2,2.2-7.4,4.3-11.6,16-23.8,7.1-8.3-6.1-10.5-11.5-5.7-20.9,2.3-4.4,3.3-11.5,1.4-15.7-3.6-7.5-11-3.9-16.4-1.3-10.1,4.8-16.1,1.9-21-7.8-3.3-6.7-3.4-11.5,3.1-15.9,2.7-1.8,5.2-4.1,7.4-6.5,5.6-6.2,3.1-14.8-4.9-17.1-2.4-.7-5.1-.8-7.6-1-13.4-1-19.6-9-15.2-21.6,1.2-3.3,6.9-5.3,10.9-7.1,5.4-2.5,12.2-2.1,13.3-10.7,1.1-9-5.4-11-11-14.1-.6-.4-1.2-.9-1.9-1.1-8.7-2.8-8.8-8.6-6.9-16.4,2.3-9.5,7.3-12.5,16.5-10.4,6.2,1.4,12.3,3.6,17.2-4.3,5.4-8.6-.7-12.8-4.6-18-4.5-6-7.4-11-1.3-18.3,6.3-7.4,11.8-9.8,20.1-3.4,6,4.6,13.7,10,19.5.8,2.7-4.3,3.1-11.6,1.7-16.8-2.4-8.6-1.1-13.4,7.6-17.1,8.3-3.6,13.4-2.6,18.1,5.3,2.5,4.2,6.4,9.6,10.3,10.3,8.2,1.4,14.6-2,15.7-12.2.8-7,.2-15.7,12.1-15.9,10.2-.2,16.1,2.5,16.5,13.4.3,8.5,3.5,16.1,13.4,14.5,4.7-.7,9.6-5.7,12.5-10.1,5-7.5,9.8-9,18.2-5.4,8.2,3.5,10.4,8.2,8,16.2-.8,2.4-2.1,5.2-1.5,7.4,1.2,4.4,2.6,9.9,5.8,12.3,2.6,2,8.4,1,12.3-.2,7.5-2.4,13.2-12,22.6-1.2,6.8,7.9,6.7,13.4.4,20.8-2.9,3.5-6.7,8.4-6.2,12.1,1.1,7.7,5.6,12.7,15.4,10.9,16.6-3.1,17.8-2.2,20.7,13.4.6,3.2-1.7,7.9-4.2,10.4-3.3,3.2-8.3,4.6-12,7.5-7,5.3-5.7,14.6,2.4,18.2,1.7.7,3.4,1.3,5.2,1.8,14.2,4.6,16.8,9.1,11.8,22.9-1,2.6-4.9,4.9-7.9,5.8-4.1,1.2-9.1,0-12.9,1.5-3.5,1.5-7.1,5-8.5,8.4-.9,2.3,1.7,6.4,3.3,9.3,1,1.8,3.2,2.9,5,4.2,6.5,4.9,9.9,9.6,4.4,18.2-5.1,8.1-9.8,12.3-19.2,7.4-2.5-1.3-5.5-2.1-8.3-2.6-8.5-1.6-14.2,5-11.4,13.1.8,2.4,1.9,4.8,3.1,7,3.9,7.1,5.2,12.7-3.4,18.4-7.9,5.2-13.9,7.6-20.6-.7-2.1-2.5-4.7-4.7-7.4-6.5-5.5-3.8-13.1-.7-14.3,5.8-.5,2.8-.2,5.8-.2,8.8,0,13.4-6.8,19.6-20.2,17.4-2.5-.4-5.1-3.4-6.6-5.9-2.5-4-3.7-8.8-6.1-12.8-4.1-6.8-11.4-6.5-15.6.3-1.3,2.2-2.2,4.6-3.3,6.9-5.6,12.3-14.4,15.7-25.4,8-3.5-2.5-4.1-9.1-6-13.8.5-.2,1.1-.4,1.6-.6ZM1500,415.1c-.3-32.8-28.1-60.2-60.5-59.5-32.4.7-58.8,27.8-58.4,60.3.3,32.3,28,59.6,59.7,59,32.4-.7,59.5-28.1,59.2-59.8Z"/>
    <path class="cls-13" d="M549.3,329c-7.5,13.9,3.4,24.3,8.7,36,.7,1.4,2.5,2.5,4.1,3.3,3,1.6,6.1,3.2,9.4,4.2,8.3,2.4,11,7.5,10.3,16.1-.5,5.9-1.4,10.1-7.8,11.6-1.9.4-3.6,1.7-5.6,2.3-6.9,2.1-12.3,5.7-14.2,13.2-.1.6-.5,1.2-.9,1.6-8.6,8.2-7.4,18.5-5.3,28.6,1.2,6.2-1.7,9-6.3,11.4-4.8,2.6-9.4,6.9-15.1,1.7-.4-.4-1-.7-1.4-1.1-9.6-10.8-22.2-11.5-35.3-10.4-1.9.2-3.9,1-5.5,2-3.5,2.3-7.1,4.6-10.2,7.5-5.2,4.7-10,4.4-15.8.8-8.6-5.5-8.9-5.5-7.3-16,1.3-8.1.7-15.2-3.5-23.3-5.5-10.4-12.8-16.3-23.2-19.8-4.8-1.6-7.3-4.5-6.6-9.9.4-2.8-.4-5.8.3-8.4.6-2.2,2.5-4,4-6,.3-.4,1.1-.6,1.6-.8q18.9-8.4,28.4-26.8c.7-1.3.9-3.1.8-4.6-.1-3.2-.4-6.4-.9-9.6-1.7-12.2,1-16.8,12.7-20.5,1.7-.5,3.8,0,5.7.4.9.2,1.9.9,2.5,1.6,9.8,11,22.8,12.1,36.3,11.4,2.1-.1,4.3-1,6-2.2,3.7-2.4,7.2-5.2,10.8-7.7,6.4-4.5,18.3-2,22.1,4.9,1.1,2.1.7,5,1.1,8.5ZM500.4,345.4c-22.6-.4-41.3,17.6-41.8,40.3-.5,22.3,18.1,41.5,40.4,41.8,22.4.3,41.5-18.2,41.9-40.5.4-22.4-17.9-41.2-40.6-41.7Z"/>
    <path class="cls-1" d="M2345.8,465.7v-82.2c56.9,0,103-33.6,103-75l112.9,1c0,86.3-96,156.2-214.5,156.2"/>
    <path class="cls-1" d="M2561.6,465.7v-81.7c55.4,0,100.3-33.4,100.3-74.5l110,1c0,85.7-93.5,155.2-208.9,155.2"/>
    <rect class="cls-8" x="2345.8" y="501.4" width="171.1" height="241.4"/>
    <polygon class="cls-12" points="2345.8 790.2 2345.8 933.5 2612.8 790.2 2345.8 790.2"/>
    <polygon class="cls-7" points="2763 890.5 2763 501.4 2597 696 2763 890.5"/>
    <polygon class="cls-7" points="1992.5 351.8 2061.5 626.2 1970.3 899.9 2079.5 899.9 2079.5 352.1 1992.5 351.8"/>
    <polygon class="cls-7" points="2164.3 351.8 2095.4 626.2 2186.5 899.9 2077.3 899.9 2077.3 352.1 2164.3 351.8"/>
    <path class="cls-1" d="M1999.4,679.6l135.6-70.7-19-36.1-182.6,94.9c20.3,77.1,105.2,120.5,182.1,94.3,83-28.3,124.4-120.2,88.5-199.1-17.2-37.8-45-66.4-85.4-78.7-81-24.6-140.6,6.1-183,75.1-9.1-1.6-16.9-2.9-29.9-5.1,11.7,31,21.7,57.7,31.9,84.6,27-16.2,51.2-30.8,78.1-46.9-10.5-7-17-11.4-23.6-15.8,34.5-48.6,92-58.7,135-24.8,42.8,33.7,46.7,96.2,8.6,136.4-35.6,37.5-102.1,39-133.5-4.3-1-1.3-1.9-2.6-2.9-3.8"/>
    <rect class="cls-10" x="2371.5" y="547" width="118.6" height="51.1"/>
    <rect class="cls-10" x="2439" y="636.6" width="51.1" height="51.1"/>
    <g>
      <path class="cls-12" d="M2345.8,815.3h-981.2s-2.3,0-2.3,0h-4.7c-1.6-.2-3.1-.3-4.6-.5-1.5-.1-3.1-.2-4.6-.4-3.1-.4-6.2-.7-9.2-1.3-1.5-.3-3.1-.5-4.6-.8l-4.5-1-2.3-.5-2.2-.6-4.5-1.3-4.4-1.5c-1.5-.5-2.9-1-4.4-1.6-11.6-4.4-22.6-10.2-32.7-17.5-5.1-3.5-9.9-7.5-14.5-11.6l-3.4-3.2c-.6-.5-1.1-1.1-1.7-1.6l-1.6-1.7-3.2-3.4-3-3.5-1.5-1.8-1.4-1.8-2.9-3.7-2.7-3.8-1.4-1.9c-.4-.6-.8-1.3-1.3-2l-2.5-3.9c-.8-1.3-1.5-2.7-2.3-4-1.6-2.6-2.9-5.5-4.4-8.2-5.4-11.1-9.4-23-11.9-35.1-1.1-6.1-2.1-12.2-2.5-18.4,0-1.5-.3-3.1-.3-4.6v-4.7c-.1-.8-.2-1.5-.2-2.4v-239.2c0-.4,0-1,0-1.5v-1.6s-.2-6.2-.2-6.2c0-1,0-2.1-.2-3.1l-.2-3.1c-.2-2.1-.3-4.1-.5-6.2l-.8-6.2c-.1-1-.3-2.1-.4-3.1l-.5-3.1-1.1-6.1c-.4-2-.9-4-1.4-6.1-.9-4.1-2.1-8-3.2-12-.6-2-1.3-3.9-1.9-5.9l-1-2.9-.5-1.5-.6-1.5c-1.5-3.9-3-7.8-4.8-11.5-3.3-7.6-7.3-14.9-11.6-22l-3.4-5.2-1.7-2.6-1.8-2.5-3.6-5.1-3.8-4.9-1.9-2.4-2-2.4-4.1-4.7c-1.4-1.5-2.8-3-4.3-4.5l-2.1-2.2c-.7-.7-1.5-1.4-2.2-2.2l-4.5-4.3c-1.5-1.4-3.1-2.7-4.7-4.1-3.1-2.8-6.4-5.3-9.7-7.8-6.7-4.9-13.5-9.6-20.8-13.7-7.2-4.2-14.7-7.8-22.3-11l-5.8-2.3c-1-.4-1.9-.8-2.9-1.1l-2.9-1-5.9-2-6-1.7-3-.8c-1-.3-2-.5-3-.7l-6.1-1.4c-2-.4-4.1-.8-6.1-1.1-2-.3-4.1-.8-6.1-1-4.1-.5-8.2-1.1-12.4-1.4-2.1-.2-4.1-.3-6.2-.4l-6.2-.2h-3.1c-.5,0-1,0-1.4,0H0v-20h1019.4s3.4,0,3.4,0l6.8.2c2.3.1,4.5.3,6.8.5,4.6.3,9.1.9,13.6,1.5,2.3.3,4.5.7,6.8,1.1,2.2.4,4.5.8,6.7,1.3l6.7,1.5c1.1.3,2.2.5,3.3.8l3.3.9,6.6,1.9,6.5,2.2,3.2,1.1c1.1.4,2.1.8,3.2,1.2l6.4,2.5c8.4,3.6,16.7,7.5,24.6,12.2,8,4.5,15.5,9.6,22.8,15.1,3.6,2.8,7.2,5.6,10.6,8.6,1.7,1.5,3.5,3,5.1,4.5l5,4.7c.8.8,1.7,1.6,2.5,2.4l2.4,2.5c1.6,1.7,3.2,3.3,4.7,5l4.5,5.2,2.2,2.6,2.1,2.7,4.2,5.4,4,5.6,2,2.8,1.9,2.9,3.7,5.8c4.7,7.9,9.1,15.9,12.7,24.3,2,4.1,3.6,8.4,5.2,12.7l.6,1.6.6,1.6,1.1,3.2c.7,2.2,1.5,4.3,2.1,6.5,1.2,4.4,2.6,8.8,3.5,13.3.5,2.2,1,4.5,1.5,6.7l1.2,6.7.6,3.4c.2,1.1.3,2.3.5,3.4l.9,6.8c.3,2.3.4,4.5.6,6.8l.3,3.4c0,1.1.2,2.3.2,3.4l.2,6.8v1.7s0,1.6,0,1.6v239.2c0,.2,0,.5,0,.6v.5s0,1,0,1v4c.1,1.4.3,2.7.4,4,.3,5.4,1.2,10.7,2.2,15.9,2.2,10.5,5.6,20.7,10.3,30.3,1.3,2.4,2.4,4.8,3.8,7.1.7,1.2,1.3,2.3,2,3.5l2.2,3.4c.4.6.7,1.1,1.1,1.7l1.2,1.6,2.3,3.3,2.5,3.2,1.2,1.6,1.3,1.5,2.6,3.1,2.8,2.9,1.4,1.5c.5.5,1,.9,1.5,1.4l2.9,2.8c4,3.5,8.1,7,12.6,10.1,8.7,6.3,18.3,11.2,28.3,15.1,1.2.5,2.5.9,3.8,1.4l3.8,1.3,3.9,1.1,1.9.6,2,.4,3.9.9c1.3.3,2.6.5,4,.7,2.6.6,5.3.8,8,1.2,1.3.2,2.7.2,4,.4,1.3,0,2.7.2,4,.3h4c0,0,2,.2,2,.2h2.6s21.7,0,21.7,0h956.8v20Z"/>
      <path class="cls-12" d="M2345.8,850.3h-981.2s-2.9,0-2.9,0h-5.7c-1.9-.2-3.8-.4-5.7-.6-1.9-.2-3.8-.2-5.7-.5-3.8-.5-7.6-.9-11.4-1.6-1.9-.3-3.8-.6-5.7-1l-5.6-1.3-2.8-.7-2.8-.8-5.5-1.6-5.5-1.8c-1.8-.6-3.6-1.2-5.4-1.9-14.3-5.5-28-12.7-40.5-21.6-6.3-4.4-12.2-9.3-17.9-14.4l-4.2-4c-.7-.7-1.4-1.3-2.1-2l-2-2.1-4-4.2-3.8-4.3-1.9-2.2-1.8-2.3-3.6-4.5-3.3-4.7-1.7-2.3c-.5-.8-1-1.6-1.6-2.4l-3.1-4.8c-1-1.6-1.9-3.3-2.9-5-2-3.3-3.6-6.8-5.4-10.2-6.7-13.8-11.6-28.4-14.8-43.5-1.4-7.5-2.6-15.1-3.1-22.8-.1-1.9-.3-3.8-.4-5.7v-5.7c-.1,0-.2-2.9-.2-2.9v-239.2c0-.9,0-1.7,0-2.6v-5.1c-.1-.9-.2-1.7-.3-2.6l-.2-2.6c-.1-1.7-.2-3.4-.4-5.1l-.6-5.1c-.1-.8-.2-1.7-.3-2.5l-.5-2.5-.9-5-1.1-5c-.7-3.3-1.7-6.6-2.6-9.9-.4-1.6-1.1-3.2-1.6-4.9l-.8-2.4-.4-1.2-.5-1.2c-1.3-3.2-2.4-6.4-3.9-9.5-2.7-6.3-6.1-12.2-9.5-18.1l-2.8-4.3-1.4-2.2-1.5-2.1-3-4.2-3.2-4-1.6-2-1.7-1.9-3.4-3.9c-1.2-1.3-2.4-2.5-3.5-3.7l-1.8-1.9c-.6-.6-1.2-1.2-1.8-1.8l-3.7-3.5c-1.3-1.2-2.6-2.2-3.9-3.4-2.5-2.3-5.3-4.3-8-6.5-5.5-4.1-11.1-7.9-17.1-11.3-5.9-3.5-12.1-6.4-18.3-9.1l-4.8-1.9c-.8-.3-1.6-.6-2.4-.9l-2.4-.8-4.9-1.6-4.9-1.4-2.5-.7c-.8-.2-1.7-.4-2.5-.6l-5-1.2c-1.7-.4-3.4-.6-5-.9-1.7-.3-3.4-.7-5.1-.8-3.4-.4-6.8-.9-10.2-1.1-1.7-.1-3.4-.3-5.1-.4h-5.1c0-.1-2.6-.2-2.6-.2-.9,0-1.8,0-2.7,0H0v-20h1016.6c.9,0,1.8,0,2.7,0h2.9c0,0,5.7.2,5.7.2,1.9.1,3.8.3,5.7.4,3.8.2,7.6.8,11.4,1.3,1.9.2,3.8.6,5.7.9,1.9.4,3.8.6,5.7,1l5.6,1.3c.9.2,1.9.4,2.8.7l2.8.8,5.5,1.6,5.5,1.8,2.7.9c.9.3,1.8.7,2.7,1l5.4,2.1c7,3,14,6.3,20.6,10.2,6.7,3.8,13,8.1,19.2,12.7,3,2.4,6.1,4.7,8.9,7.2,1.4,1.3,2.9,2.5,4.3,3.8l4.2,4c.7.7,1.4,1.3,2.1,2l2,2.1c1.3,1.4,2.7,2.8,4,4.2l3.8,4.3,1.9,2.2,1.8,2.3,3.6,4.5,3.3,4.7,1.7,2.3,1.6,2.4,3.1,4.8c3.9,6.6,7.6,13.3,10.7,20.4,1.7,3.5,3,7.1,4.4,10.6l.5,1.3.5,1.4.9,2.7c.6,1.8,1.3,3.6,1.8,5.5,1,3.7,2.2,7.4,3,11.1l1.3,5.6,1,5.7.5,2.8c.1.9.3,1.9.4,2.8l.7,5.7c.2,1.9.3,3.8.5,5.7l.2,2.9c0,1,.1,1.9.2,2.9v5.7c.2.9.2,1.9.2,2.8v239.2c0,.9,0,1.7,0,2.6v5.1c.1,1.7.4,3.4.5,5.1.4,6.8,1.5,13.6,2.8,20.3,2.8,13.4,7.2,26.4,13.2,38.7,1.6,3,3,6.1,4.8,9,.9,1.5,1.7,3,2.6,4.4l2.8,4.3c.5.7.9,1.4,1.4,2.2l1.5,2.1,3,4.2,3.2,4,1.6,2,1.7,1.9,3.4,3.9,3.5,3.7,1.8,1.9c.6.6,1.2,1.2,1.8,1.8l3.7,3.5c5.1,4.5,10.3,8.9,16,12.8,11.1,8,23.3,14.3,36,19.2,1.6.7,3.2,1.2,4.8,1.7l4.9,1.6,4.9,1.4,2.5.7,2.5.6,5,1.2c1.7.4,3.4.6,5,.9,3.3.7,6.7,1,10.1,1.5,1.7.3,3.4.3,5.1.5,1.7.1,3.4.3,5.1.4h5.1c0,.1,2.6.2,2.6.2h2.7s21.7,0,21.7,0h956.8v20Z"/>
      <path class="cls-12" d="M2345.8,885.3h-981.3s-3.4,0-3.4,0l-6.8-.2c-2.3-.1-4.5-.3-6.8-.5-2.3-.2-4.5-.3-6.8-.6-4.5-.6-9.1-1.1-13.6-2-2.2-.4-4.5-.8-6.7-1.3l-6.7-1.5-3.3-.8-3.3-.9-6.6-1.9c-2.2-.7-4.3-1.4-6.5-2.2-2.2-.7-4.3-1.5-6.5-2.3-17.1-6.5-33.4-15.1-48.3-25.7-7.5-5.2-14.5-11.1-21.3-17.1l-5-4.7c-.8-.8-1.7-1.6-2.5-2.4l-2.4-2.5-4.7-5-4.5-5.2-2.2-2.6-2.1-2.7-4.2-5.4-4-5.6-2-2.8c-.6-.9-1.2-1.9-1.9-2.9l-3.7-5.8c-1.2-1.9-2.3-3.9-3.4-5.9-2.3-3.9-4.3-8-6.4-12.1-8-16.4-13.9-33.9-17.6-51.8-1.7-9-3.1-18-3.7-27.1-.1-2.3-.4-4.5-.4-6.8l-.2-6.8v-3.3c0,0,0-2.7,0-2.7v-236.5c0-.5,0-.8,0-1.1v-1s-.1-4-.1-4c0-.7,0-1.3-.1-2l-.2-2c-.1-1.3-.2-2.7-.3-4l-.5-4c0-.7-.1-1.3-.3-2l-.4-2-.7-4-.9-3.9c-.5-2.6-1.4-5.2-2.1-7.8-.3-1.3-.9-2.5-1.3-3.8l-.6-1.9-.3-1-.4-.9c-1-2.5-1.9-5-3.1-7.4-2.1-4.9-4.8-9.6-7.5-14.2l-2.2-3.4-1.1-1.7-1.2-1.6-2.3-3.3-2.5-3.2-1.2-1.6-1.3-1.5-2.6-3.1-2.8-2.9-1.4-1.5c-.5-.5-1-.9-1.5-1.4l-2.9-2.8c-1-.9-2-1.8-3-2.6-2-1.8-4.2-3.4-6.3-5.1-4.3-3.2-8.7-6.2-13.4-8.9-4.6-2.7-9.5-5-14.4-7.1l-3.7-1.5c-.6-.2-1.2-.5-1.9-.7l-1.9-.6-3.8-1.3-3.9-1.1-1.9-.6c-.6-.2-1.3-.3-2-.4l-3.9-.9c-1.3-.3-2.6-.5-4-.7-1.3-.2-2.6-.5-4-.7-2.7-.3-5.3-.8-8-.9l-4-.3h-4c0,0-2-.2-2-.2-.3,0-.8,0-1.2,0H0v-20h1017.9c.4,0,.9,0,1.3,0h2.3c0,0,4.7.2,4.7.2,1.5,0,3.1.2,4.6.3,3.1.2,6.2.6,9.2,1,1.5.1,3.1.5,4.6.8,1.5.3,3.1.5,4.6.8l4.5,1c.8.2,1.5.3,2.3.5l2.2.6,4.5,1.3,4.4,1.5,2.2.7c.7.2,1.4.6,2.2.8l4.3,1.7c5.7,2.5,11.3,5.1,16.6,8.3,5.4,3,10.5,6.6,15.5,10.2,2.4,1.9,4.9,3.8,7.2,5.9,1.2,1,2.4,2,3.5,3.1l3.4,3.2c.6.5,1.1,1.1,1.7,1.6l1.6,1.7,3.2,3.4,3,3.5,1.5,1.8,1.4,1.8,2.9,3.7,2.7,3.8,1.4,1.9,1.3,2,2.5,3.9c3.1,5.3,6.2,10.8,8.6,16.5,1.3,2.8,2.4,5.7,3.6,8.6l.4,1.1.4,1.1.7,2.2c.5,1.5,1,2.9,1.4,4.4.8,3,1.8,5.9,2.4,9l1,4.5.8,4.6.4,2.3c.1.8.2,1.5.3,2.3l.6,4.6c.2,1.5.2,3.1.4,4.6l.2,2.3c0,.8.1,1.5.1,2.3v4.7c.1,0,.1,1.2.1,1.2,0,.4,0,.8,0,1.2v242.2c0,0,.2,6.2.2,6.2,0,2.1.3,4.1.4,6.2.5,8.3,1.8,16.5,3.4,24.6,3.4,16.2,8.7,32.1,16,47,1.9,3.7,3.7,7.4,5.8,11,1,1.8,2.1,3.6,3.1,5.4l3.4,5.2c.6.9,1.1,1.8,1.7,2.6l1.8,2.5,3.6,5.1,3.8,4.9,1.9,2.4,2,2.4,4.1,4.7,4.3,4.5,2.1,2.2c.7.7,1.5,1.4,2.2,2.2l4.5,4.3c6.2,5.5,12.6,10.8,19.4,15.6,13.5,9.6,28.3,17.4,43.8,23.4,1.9.8,3.9,1.4,5.9,2.1,2,.7,3.9,1.3,5.9,2l6,1.7,3,.8,3,.7,6.1,1.4c2,.4,4.1.8,6.1,1.1,4.1.8,8.2,1.3,12.3,1.8,2.1.3,4.1.4,6.2.6,2.1.1,4.1.3,6.2.4l6.2.2h3.1c0,0,2.8,0,2.8,0h978.5v20Z"/>
    </g>
    <line class="cls-2" x1="276.6" y1="125.8" x2="369.5" y2="630.2"/>
    <line class="cls-2" x1="300.9" y1="125.8" x2="393.9" y2="630.2"/>
    <line class="cls-2" x1="327.4" y1="125.8" x2="420.4" y2="630.2"/>
    <rect class="cls-8" x="1543.8" y="598.3" width="71.6" height="297.8"/>
    <path class="cls-6" d="M1516.6,645.5c38.5,9.1,77,10,115.6,1.1,8.2-1.9,16.5-4.8,24.8-4.9,24.9-.5,43.8,21.7,41.9,46.5-2,26.1-30.8,45.6-58.7,36-11-3.8-23-5-34.6-6.1-31.7-3.1-62.8.3-93.4,9.4-27.7,8.2-55.8-15.6-54.3-44.2,1.2-24.9,27.4-47.1,55.6-38.7,1,.3,2.1.6,3.1.9ZM1661.6,662.9c-11.3-3.1-23.4,3.7-26.4,14.9-3.2,11.8,3.6,24.3,15.1,27.5,11.2,3.1,24.8-4.4,27.2-15.8,2.9-13.9-5.8-24.1-15.9-26.5ZM1507.1,664.8c-11.8-3.3-23.9,3.5-27.2,15.3-3.1,11.1,3.8,23.4,14.9,26.6,11.6,3.4,24.2-3.5,27.5-15,3.3-11.2-3.8-23.7-15.2-26.9Z"/>
    <path class="cls-5" d="M269.5,95.4c36.8,0,73.4-.2,110.1-.6,22.5-.2,46.6,12.2,54,32.3,8.7,23.4-15.2,41-35.3,51.8"/>
    <polyline class="cls-9" points="2581.6 1024 0 1024 0 659.8 0 0 2771.9 0 2771.9 1024 2581.6 1024"/>
  </g>
</svg>