<?xml version="1.0" encoding="UTF-8"?>
<svg xmlns="http://www.w3.org/2000/svg" viewBox="0 0 243 210">
  <rect x="1" y="55" width="241" height="155" rx="5" fill="#2DAAC0" shape-rendering="crispEdges"/>
  <path fill="#168499" d="M5.6,53.7C2.5,53.7,0,56.2,0,59.2v14.9C0,76.7,1.8,79,4.3,79.5l117.4,27.4c.8.2,1.7.2,2.6,0l114.4-27.4c2.5-.6,4.3-2.8,4.3-5.4v-14.9c0-3.1-2.5-5.6-5.6-5.6H5.6Z"/>
  <rect x="31.5" y="55" width="180" height="155" rx="2" fill="#FFF" shape-rendering="crispEdges"/>
  <path fill="#33a1b6" d="M238.7,79.6l-114.4,27.4c-.8.2-1.7.2-2.6,0L4.3,79.5c-1.7-.4-3.1-1.6-3.8-3.1v128.8c0,2.8,2.3,5.1,5.1,5.1h231.9c2.8,0,5.1-2.3,5.1-5.1V76.4c-.7,1.5-2,2.7-3.8,3.1Z"/>
  <path stroke="#f4f4f5" fill="none" d="M5.6,53.7c-3.1,0-5.6,2.5-5.6,5.6v14.9c0,2.6,1.8,4.8,4.3,5.4l117.4,27.4c.8.2,1.7.2,2.6,0l114.4-27.4c2.5-.6,4.3-2.8,4.3-5.4v-14.9c0-3.1-2.5-5.6-5.6-5.6H5.6Z"/>
  <path style="transform-origin:0 25.5%" stroke="#f4f4f5" fill="#d9b43e" d="M5.6,53.7c-3.1,0-5.6,2.5-5.6,5.6v14.9c0,2.6,1.8,4.8,4.3,5.4l117.4,27.4c.8.2,1.7.2,2.6,0l114.4-27.4c2.5-.6,4.3-2.8,4.3-5.4v-14.9c0-3.1-2.5-5.6-5.6-5.6H5.6Z"/>
</svg>